<mxfile host="app.diagrams.net" modified="2021-06-10T14:01:46.877Z" agent="5.0 (X11)" etag="ivkLICtcAVsaypkRlPpQ" version="14.7.6" type="github">
  <diagram id="C5RBs43oDa-KdzZeNtuy" name="Page-1">
    <mxGraphModel dx="1154" dy="800" grid="1" gridSize="10" guides="1" tooltips="1" connect="1" arrows="1" fold="1" page="1" pageScale="1" pageWidth="827" pageHeight="1169" math="0" shadow="0">
      <root>
        <mxCell id="WIyWlLk6GJQsqaUBKTNV-0" />
        <mxCell id="WIyWlLk6GJQsqaUBKTNV-1" parent="WIyWlLk6GJQsqaUBKTNV-0" />
        <mxCell id="TdJ-JfOEs7V0N-r-kquq-17" value="SelectAreaMessage" style="edgeStyle=orthogonalEdgeStyle;rounded=0;orthogonalLoop=1;jettySize=auto;html=1;" edge="1" parent="WIyWlLk6GJQsqaUBKTNV-1" source="2Qf_NVuEQc3LUc1q7DUG-0" target="TdJ-JfOEs7V0N-r-kquq-16">
          <mxGeometry relative="1" as="geometry" />
        </mxCell>
        <mxCell id="2Qf_NVuEQc3LUc1q7DUG-0" value="TerrainTest" style="rounded=1;whiteSpace=wrap;html=1;" parent="WIyWlLk6GJQsqaUBKTNV-1" vertex="1">
          <mxGeometry x="155" width="120" height="60" as="geometry" />
        </mxCell>
        <mxCell id="TdJ-JfOEs7V0N-r-kquq-19" value="opens database" style="edgeStyle=orthogonalEdgeStyle;rounded=0;orthogonalLoop=1;jettySize=auto;html=1;" edge="1" parent="WIyWlLk6GJQsqaUBKTNV-1" source="TdJ-JfOEs7V0N-r-kquq-16" target="TdJ-JfOEs7V0N-r-kquq-18">
          <mxGeometry relative="1" as="geometry" />
        </mxCell>
        <mxCell id="TdJ-JfOEs7V0N-r-kquq-16" value="TerrainTestActor" style="rounded=0;whiteSpace=wrap;html=1;" vertex="1" parent="WIyWlLk6GJQsqaUBKTNV-1">
          <mxGeometry x="155" y="120" width="120" height="60" as="geometry" />
        </mxCell>
        <mxCell id="TdJ-JfOEs7V0N-r-kquq-18" value="DbActor" style="rounded=0;whiteSpace=wrap;html=1;" vertex="1" parent="WIyWlLk6GJQsqaUBKTNV-1">
          <mxGeometry x="155" y="260" width="120" height="60" as="geometry" />
        </mxCell>
        <mxCell id="TdJ-JfOEs7V0N-r-kquq-21" value="OpenDatabaseFinished" style="curved=1;endArrow=classic;html=1;exitX=1;exitY=0.5;exitDx=0;exitDy=0;entryX=1;entryY=0.5;entryDx=0;entryDy=0;" edge="1" parent="WIyWlLk6GJQsqaUBKTNV-1" source="TdJ-JfOEs7V0N-r-kquq-18" target="TdJ-JfOEs7V0N-r-kquq-16">
          <mxGeometry width="50" height="50" relative="1" as="geometry">
            <mxPoint x="390" y="440" as="sourcePoint" />
            <mxPoint x="440" y="390" as="targetPoint" />
            <Array as="points">
              <mxPoint x="310" y="330" />
              <mxPoint x="320" y="200" />
            </Array>
          </mxGeometry>
        </mxCell>
      </root>
    </mxGraphModel>
  </diagram>
</mxfile>
